<mxfile host="app.diagrams.net" modified="2022-02-07T06:00:32.292Z" agent="5.0 (Windows)" etag="UiFouJJPgu_UxRBKrOf6" version="16.5.3" type="github">
  <diagram name="Page-1" id="7e0a89b8-554c-2b80-1dc8-d5c74ca68de4">
    <mxGraphModel dx="982" dy="548" grid="1" gridSize="10" guides="1" tooltips="1" connect="1" arrows="1" fold="1" page="1" pageScale="1" pageWidth="1100" pageHeight="850" background="none" math="0" shadow="0">
      <root>
        <mxCell id="0" />
        <mxCell id="1" parent="0" />
        <mxCell id="w6JTAtwwS18DehPaM6cM-1" value="&lt;b style=&quot;font-size: 25px;&quot;&gt;R&lt;/b&gt;" style="pointerEvents=1;verticalLabelPosition=bottom;shadow=0;dashed=0;align=center;html=1;verticalAlign=top;shape=mxgraph.electrical.resistors.resistor_2;rotation=90;horizontal=0;fontSize=25;spacing=4;spacingTop=25;spacingLeft=18;" vertex="1" parent="1">
          <mxGeometry x="550" y="400" width="100" height="20" as="geometry" />
        </mxCell>
        <mxCell id="w6JTAtwwS18DehPaM6cM-2" value="&lt;div style=&quot;font-size: 25px;&quot;&gt;&lt;b style=&quot;font-size: 25px;&quot;&gt;C&lt;/b&gt;&lt;/div&gt;" style="pointerEvents=1;verticalLabelPosition=bottom;shadow=0;dashed=0;align=center;html=1;verticalAlign=top;shape=mxgraph.electrical.capacitors.capacitor_1;rotation=90;horizontal=0;fontSize=25;spacing=4;spacingLeft=-18;spacingBottom=0;spacingTop=25;" vertex="1" parent="1">
          <mxGeometry x="450" y="380" width="100" height="60" as="geometry" />
        </mxCell>
        <mxCell id="w6JTAtwwS18DehPaM6cM-3" value="&lt;font style=&quot;font-size: 20px&quot;&gt;&lt;b&gt;Diode&lt;/b&gt;&lt;/font&gt;" style="pointerEvents=1;fillColor=strokeColor;verticalLabelPosition=bottom;shadow=0;dashed=0;align=center;html=1;verticalAlign=top;shape=mxgraph.electrical.diodes.diode;" vertex="1" parent="1">
          <mxGeometry x="310" y="310" width="100" height="60" as="geometry" />
        </mxCell>
        <mxCell id="w6JTAtwwS18DehPaM6cM-4" value="" style="pointerEvents=1;verticalLabelPosition=bottom;shadow=0;dashed=0;align=center;html=1;verticalAlign=top;shape=mxgraph.electrical.signal_sources.source;aspect=fixed;points=[[0.5,0,0],[1,0.5,0],[0.5,1,0],[0,0.5,0]];elSignalType=ac;" vertex="1" parent="1">
          <mxGeometry x="160" y="380" width="60" height="60" as="geometry" />
        </mxCell>
        <mxCell id="w6JTAtwwS18DehPaM6cM-5" value="" style="endArrow=none;html=1;rounded=0;exitX=0.5;exitY=0;exitDx=0;exitDy=0;exitPerimeter=0;" edge="1" parent="1" source="w6JTAtwwS18DehPaM6cM-4">
          <mxGeometry width="50" height="50" relative="1" as="geometry">
            <mxPoint x="550" y="610" as="sourcePoint" />
            <mxPoint x="190" y="340" as="targetPoint" />
          </mxGeometry>
        </mxCell>
        <mxCell id="w6JTAtwwS18DehPaM6cM-6" value="" style="endArrow=none;html=1;rounded=0;" edge="1" parent="1">
          <mxGeometry width="50" height="50" relative="1" as="geometry">
            <mxPoint x="360" y="340" as="sourcePoint" />
            <mxPoint x="190" y="340" as="targetPoint" />
          </mxGeometry>
        </mxCell>
        <mxCell id="w6JTAtwwS18DehPaM6cM-7" value="" style="endArrow=none;html=1;rounded=0;entryX=1;entryY=0.5;entryDx=0;entryDy=0;entryPerimeter=0;exitX=0;exitY=0.5;exitDx=0;exitDy=0;" edge="1" parent="1" source="w6JTAtwwS18DehPaM6cM-24" target="w6JTAtwwS18DehPaM6cM-3">
          <mxGeometry width="50" height="50" relative="1" as="geometry">
            <mxPoint x="700" y="340" as="sourcePoint" />
            <mxPoint x="430" y="330" as="targetPoint" />
          </mxGeometry>
        </mxCell>
        <mxCell id="w6JTAtwwS18DehPaM6cM-8" value="" style="endArrow=none;html=1;rounded=0;entryX=0.5;entryY=1;entryDx=0;entryDy=0;entryPerimeter=0;" edge="1" parent="1" target="w6JTAtwwS18DehPaM6cM-4">
          <mxGeometry width="50" height="50" relative="1" as="geometry">
            <mxPoint x="190" y="480" as="sourcePoint" />
            <mxPoint x="189.8" y="460" as="targetPoint" />
          </mxGeometry>
        </mxCell>
        <mxCell id="w6JTAtwwS18DehPaM6cM-9" value="" style="endArrow=none;html=1;rounded=0;startArrow=none;" edge="1" parent="1" source="w6JTAtwwS18DehPaM6cM-17">
          <mxGeometry width="50" height="50" relative="1" as="geometry">
            <mxPoint x="760" y="480" as="sourcePoint" />
            <mxPoint x="190" y="480" as="targetPoint" />
          </mxGeometry>
        </mxCell>
        <mxCell id="w6JTAtwwS18DehPaM6cM-10" value="" style="endArrow=none;html=1;rounded=0;exitX=1;exitY=0.5;exitDx=0;exitDy=0;exitPerimeter=0;" edge="1" parent="1" source="w6JTAtwwS18DehPaM6cM-2">
          <mxGeometry width="50" height="50" relative="1" as="geometry">
            <mxPoint x="410" y="390" as="sourcePoint" />
            <mxPoint x="500" y="480" as="targetPoint" />
          </mxGeometry>
        </mxCell>
        <mxCell id="w6JTAtwwS18DehPaM6cM-11" value="" style="endArrow=none;html=1;rounded=0;startArrow=none;" edge="1" parent="1" source="w6JTAtwwS18DehPaM6cM-15">
          <mxGeometry width="50" height="50" relative="1" as="geometry">
            <mxPoint x="500" y="340" as="sourcePoint" />
            <mxPoint x="500" y="360" as="targetPoint" />
          </mxGeometry>
        </mxCell>
        <mxCell id="w6JTAtwwS18DehPaM6cM-12" value="" style="endArrow=none;html=1;rounded=0;entryX=0;entryY=0.5;entryDx=0;entryDy=0;entryPerimeter=0;startArrow=none;" edge="1" parent="1" source="w6JTAtwwS18DehPaM6cM-16" target="w6JTAtwwS18DehPaM6cM-1">
          <mxGeometry width="50" height="50" relative="1" as="geometry">
            <mxPoint x="600" y="340" as="sourcePoint" />
            <mxPoint x="645" y="370" as="targetPoint" />
          </mxGeometry>
        </mxCell>
        <mxCell id="w6JTAtwwS18DehPaM6cM-13" value="" style="endArrow=none;html=1;rounded=0;" edge="1" parent="1">
          <mxGeometry width="50" height="50" relative="1" as="geometry">
            <mxPoint x="600" y="460" as="sourcePoint" />
            <mxPoint x="600" y="480" as="targetPoint" />
          </mxGeometry>
        </mxCell>
        <mxCell id="w6JTAtwwS18DehPaM6cM-14" value="" style="shape=waypoint;sketch=0;fillStyle=solid;size=6;pointerEvents=1;points=[];fillColor=none;resizable=0;rotatable=0;perimeter=centerPerimeter;snapToPoint=1;" vertex="1" parent="1">
          <mxGeometry x="480" y="460" width="40" height="40" as="geometry" />
        </mxCell>
        <mxCell id="w6JTAtwwS18DehPaM6cM-17" value="" style="shape=waypoint;sketch=0;fillStyle=solid;size=6;pointerEvents=1;points=[];fillColor=none;resizable=0;rotatable=0;perimeter=centerPerimeter;snapToPoint=1;" vertex="1" parent="1">
          <mxGeometry x="580" y="460" width="40" height="40" as="geometry" />
        </mxCell>
        <mxCell id="w6JTAtwwS18DehPaM6cM-18" value="" style="endArrow=none;html=1;rounded=0;" edge="1" parent="1" target="w6JTAtwwS18DehPaM6cM-17">
          <mxGeometry width="50" height="50" relative="1" as="geometry">
            <mxPoint x="710" y="480" as="sourcePoint" />
            <mxPoint x="190" y="480" as="targetPoint" />
          </mxGeometry>
        </mxCell>
        <mxCell id="w6JTAtwwS18DehPaM6cM-16" value="" style="shape=waypoint;sketch=0;fillStyle=solid;size=6;pointerEvents=1;points=[];fillColor=none;resizable=0;rotatable=0;perimeter=centerPerimeter;snapToPoint=1;" vertex="1" parent="1">
          <mxGeometry x="580" y="320" width="40" height="40" as="geometry" />
        </mxCell>
        <mxCell id="w6JTAtwwS18DehPaM6cM-19" value="" style="endArrow=none;html=1;rounded=0;entryDx=0;entryDy=0;entryPerimeter=0;" edge="1" parent="1" target="w6JTAtwwS18DehPaM6cM-16">
          <mxGeometry width="50" height="50" relative="1" as="geometry">
            <mxPoint x="600" y="340" as="sourcePoint" />
            <mxPoint x="600" y="360" as="targetPoint" />
          </mxGeometry>
        </mxCell>
        <mxCell id="w6JTAtwwS18DehPaM6cM-15" value="" style="shape=waypoint;sketch=0;fillStyle=solid;size=6;pointerEvents=1;points=[];fillColor=none;resizable=0;rotatable=0;perimeter=centerPerimeter;snapToPoint=1;" vertex="1" parent="1">
          <mxGeometry x="480" y="320" width="40" height="40" as="geometry" />
        </mxCell>
        <mxCell id="w6JTAtwwS18DehPaM6cM-20" value="" style="endArrow=none;html=1;rounded=0;" edge="1" parent="1" target="w6JTAtwwS18DehPaM6cM-15">
          <mxGeometry width="50" height="50" relative="1" as="geometry">
            <mxPoint x="500" y="340" as="sourcePoint" />
            <mxPoint x="500" y="360" as="targetPoint" />
          </mxGeometry>
        </mxCell>
        <mxCell id="w6JTAtwwS18DehPaM6cM-21" value="&lt;font style=&quot;font-size: 20px&quot;&gt;Output signal&lt;/font&gt;" style="labelPosition=right;align=left;shape=mxgraph.electrical.signal_sources.voltage;shadow=0;dashed=0;strokeWidth=1;fontSize=10;html=1;horizontal=0;" vertex="1" parent="1">
          <mxGeometry x="750" y="352.5" width="20" height="120" as="geometry" />
        </mxCell>
        <mxCell id="w6JTAtwwS18DehPaM6cM-23" value="" style="verticalLabelPosition=bottom;shadow=0;dashed=0;align=center;html=1;verticalAlign=top;strokeWidth=1;shape=ellipse;perimeter=ellipsePerimeter;" vertex="1" parent="1">
          <mxGeometry x="710" y="472.5" width="15" height="15" as="geometry" />
        </mxCell>
        <mxCell id="w6JTAtwwS18DehPaM6cM-24" value="" style="verticalLabelPosition=bottom;shadow=0;dashed=0;align=center;html=1;verticalAlign=top;strokeWidth=1;shape=ellipse;perimeter=ellipsePerimeter;" vertex="1" parent="1">
          <mxGeometry x="710" y="332.5" width="15" height="15" as="geometry" />
        </mxCell>
        <mxCell id="w6JTAtwwS18DehPaM6cM-27" value="&lt;div&gt;&lt;font style=&quot;font-size: 20px&quot;&gt;Input signal&lt;/font&gt;&lt;/div&gt;" style="labelPosition=right;align=left;shape=mxgraph.electrical.signal_sources.voltage;shadow=0;dashed=0;strokeWidth=1;fontSize=10;html=1;horizontal=0;spacing=8;spacingTop=-89;" vertex="1" parent="1">
          <mxGeometry x="130" y="350" width="20" height="120" as="geometry" />
        </mxCell>
      </root>
    </mxGraphModel>
  </diagram>
</mxfile>
